<?xml version="1.0" encoding="utf-8"?>
<!-- Generator: Adobe Illustrator 23.0.1, SVG Export Plug-In . SVG Version: 6.00 Build 0)  -->
<svg version="1.1" id="Camada_1" xmlns="http://www.w3.org/2000/svg" xmlns:xlink="http://www.w3.org/1999/xlink" x="0px" y="0px"
	 viewBox="0 0 1080 440" style="enable-background:new 0 0 1080 440;" xml:space="preserve">
<style type="text/css">
	.st0{fill:#ED1C24;}
	.st1{fill:#1A1A1A;}
</style>
<g>
	<g>
		<path class="st0" d="M118.9,266.7l73-2.8l-57.6,56.6c-47.1,46.2-82.5,81-106.3,104.4L67,348.2l18.7-33.7l-41.2,0.5H15l53.4-115.6
			l1.9-3.3c1.6-2.8,2.2-5.3,1.9-7.5c-0.3-2.2-1.6-4.5-3.7-7c-14.4-18.7-25.3-34.6-32.8-47.7c-6.6-11.5-7.6-23.1-3.3-34.6l4.2-9.4
			c4.1-10,7.3-17.6,9.8-22.7c2.5-5.1,5.9-8.6,10.1-10.3c4.2-1.7,9-1.3,14.3,1.2c16.2,7.5,31.8,15.3,46.8,23.4c5,2.8,8.1,6.5,9.4,11
			c1.2,4.5,0.7,9-1.6,13.3c-2.3,4.4-5.7,7.2-10.1,8.4c-4.4,1.3-8.9,0.8-13.6-1.4L76.8,101l-1.4-0.9c-1.2-0.6-2.2-1-2.8-1.2
			c-0.6-0.2-1.3,0.5-1.9,1.9c-0.6,1.4-0.6,2.4,0,3c0.6,0.6,1.7,1.1,3.3,1.4l0.9,0.5c8.7,4.1,15.8,7.7,21.1,10.8
			c7.5,4.4,13.9,9.2,19.2,14.5c1.6,1.6,3.4,4.2,5.6,8c1.6,2.8,2.8,4.7,3.7,5.6c1.6,1.9,3.1,3,4.7,3.3c1.6,0.3,3.6,0,6.1-0.9
			c1.6-0.3,3.9-1.3,7-3c3.1-1.7,5.5-2.9,7-3.5l1.4-0.5c1.2-0.6,2.3-0.9,3-0.9c0.8,0,1.6,0.8,2.6,2.3c4.4,6.6,8.3,11.1,11.9,13.6
			c3.6,2.5,7.4,3.2,11.5,2.1c4.1-1.1,9.2-3.8,15.4-8.2c0.3,8.1-2,17.5-7,28.1c-3.7,7.8-8.3,15-13.6,21.5l-26.2,32.8L118.9,266.7z
			 M76.1,54c0.5,2.3,3.2,4.6,8.2,6.8l0.9,0.5c7.2,3.4,11.9,5.3,14,5.6c3.1,0.6,6.1-0.2,8.9-2.3c1.9-1.6,5.3-5.8,10.3-12.6l2.3-2.8
			c2.5-3.4,4.4-6.1,5.6-8c1.6-3.1,2.5-6.4,2.8-9.8c-0.6-7.2-3.9-12-9.8-14.5c-3.7-1.6-7.3-2-10.8-1.4c-3.4,0.6-6.3,2.3-8.7,5.1
			s-5.5,6.9-9.6,12.4c-4.1,5.5-7.2,9.4-9.4,11.9C77.3,48.6,75.6,51.6,76.1,54z M109.8,72c-0.2-1.2,0.7-3,2.6-5.1l9.4-12.2
			c6.2-8.7,11-15.1,14.3-19.2c3.3-4.1,7.3-6.4,11.9-7c4.7-0.6,8.8,0.5,12.4,3.3c3.6,2.8,5.8,6.4,6.6,10.8c0.8,4.4-0.4,8.6-3.5,12.6
			c-5.9,8.7-15.9,22-30,39.8l-1.4,1.9c-1.3-5.9-3.4-10.5-6.3-13.8c-3-3.3-6.8-5.9-11.5-7.7C111.4,74.3,109.9,73.2,109.8,72z
			 M173.5,58.9c4.5-0.3,8.5,0.8,11.9,3.3c3.4,2.5,5.5,5.9,6.3,10.3c0.8,4.4-0.1,8.4-2.6,12.2c-7.8,10.6-19.8,26.2-36,46.8
			c-2.8,4.1-7.2,6.1-13.1,6.1c-5.9,0-10.5-2.6-13.6-8c-1.9-2.8-2.9-5.8-3-8.9c-0.2-3.1,0.7-5.9,2.6-8.4l4.2-5.6
			c14-19,24.8-33.2,32.3-42.6C165.3,60.9,168.9,59.2,173.5,58.9z M213,106.6c0.9,3.7,0.3,7.3-1.9,10.8c-6.2,10-14,20.4-23.4,31.4
			c-2.2,3.1-5.5,4.7-9.8,4.7c-6.6,0-11.6-2.6-15.2-7.7c-3.6-5.1-4-10.4-1.2-15.7c5-10.3,12.9-21.1,23.9-32.3
			c3.1-3.1,6.6-4.7,10.3-4.7c3.7,0,7.3,1.4,10.8,4.2C209.9,99.8,212.1,102.9,213,106.6z"/>
	</g>
	<path class="st0" d="M274.7,119v74.8h-25.8V26.5h35.8c25.5,0,40.5,10.2,40.5,40.3v6.4c0,25.7-10.6,32.3-17,34.9
		c9.8,4.6,15.3,11.6,15.3,34.3c0,14.1-0.3,41.3,1.5,51.4H300c-2.2-10.1-1.8-37.6-1.8-49.8c0-20.4-2.6-25.1-17.6-25.1H274.7z
		 M274.7,97.7h5.9c13.7,0,18.7-5.1,18.7-23.3v-5.7c0-12.9-2.7-20.8-17.3-20.8h-7.3V97.7z"/>
	<path class="st0" d="M428.1,131.6c0-28.4,0.3-63.9,0.8-83h-0.3c-3.8,29-13.1,96.8-20.3,145.3H384c-5.4-43.5-14.7-114.9-18.6-145.5
		h-0.5c0.5,19.5,1.3,57.4,1.3,86.2v59.4h-23.4V26.5h38.5c6.5,42.5,13.2,90.2,15.5,113.7h0.2c2.7-23.7,11.8-73.5,18.5-113.7h37.2
		v167.4h-24.5V131.6z"/>
	<path class="st1" d="M324.5,411h-20.1c-0.7-2.9-1.2-9-1.4-12.6c-4.6,11.1-14.4,15-25.2,15c-24.6,0-32.6-17.8-32.6-46.2v-78.6
		c0-27.3,10.6-47.5,39.7-47.5c35.1,0,38.9,25.8,38.9,43.8v5.4H298v-6.7c0-8.8-1.3-19-13.1-19c-9.4,0-13.4,6.5-13.4,19.9v85.6
		c0,13.4,3.9,20.4,13.2,20.4c11.2,0,13.9-9.4,13.9-26.6v-24.4H284v-22.2h40.5V411z"/>
	<path class="st1" d="M407.9,334.6h-36.8v52.7h42.4l-3.3,23.7h-64.9V243.7H410v24h-38.8v43.2h36.8V334.6z"/>
	<path class="st1" d="M451.8,336.2V411H426V243.7h35.8c25.5,0,40.5,10.2,40.5,40.3v6.4c0,25.7-10.6,32.3-17,34.9
		c9.8,4.6,15.3,11.6,15.3,34.3c0,14.1-0.3,41.3,1.5,51.4h-24.9c-2.2-10.1-1.8-37.6-1.8-49.8c0-20.4-2.6-25.1-17.6-25.1H451.8z
		 M451.8,314.9h5.9c13.7,0,18.7-5.1,18.7-23.3v-5.7c0-12.9-2.7-20.8-17.3-20.8h-7.3V314.9z"/>
	<path class="st1" d="M545.5,366.3l-5.9,44.8h-26.3l27-167.4h36.5l28,167.4h-27l-6.6-44.8H545.5z M568.2,342.5
		c-3.8-28.4-7.5-55.4-9.4-74.3h-0.9c-0.7,13.8-5.8,49.6-9.1,74.3H568.2z"/>
	<path class="st1" d="M617.1,243.7h35.8c35.5,0,44.1,18.4,44.1,49.5v64.2c0,25.6-4.4,53.7-44.2,53.7h-35.8V243.7z M642.9,389.1h8.3
		c17,0,19.6-10.9,19.6-28.2v-69.7c0-15.4-2.7-25.2-19.7-25.2h-8.1V389.1z"/>
	<path class="st1" d="M795.2,288.1v78.2c0,32.1-13.6,47.2-42,47.2c-27.2,0-39.4-15.6-39.4-46.8v-78.8c0-32.1,16.1-46.7,41.1-46.7
		C780.2,241.2,795.2,255.9,795.2,288.1z M740.1,285.6v84.2c0,13.9,5,20.4,14.3,20.4c10,0,14.5-6.1,14.5-20.8v-84
		c0-13.3-4.1-20.6-14.5-20.6C745.1,264.7,740.1,271.4,740.1,285.6z"/>
	<path class="st1" d="M840.1,336.2V411h-25.8V243.7h35.8c25.5,0,40.5,10.2,40.5,40.3v6.4c0,25.7-10.6,32.3-17,34.9
		c9.8,4.6,15.3,11.6,15.3,34.3c0,14.1-0.3,41.3,1.5,51.4h-24.9c-2.2-10.1-1.8-37.6-1.8-49.8c0-20.4-2.6-25.1-17.6-25.1H840.1z
		 M840.1,314.9h5.9c13.7,0,18.7-5.1,18.7-23.3v-5.7c0-12.9-2.7-20.8-17.3-20.8h-7.3V314.9z"/>
	<path class="st1" d="M972.1,334.6h-36.8v52.7h42.4l-3.3,23.7h-64.9V243.7h64.6v24h-38.8v43.2h36.8V334.6z"/>
	<path class="st1" d="M1012.8,361.8v10.3c0,12.5,3.7,19.4,13.5,19.4c10.1,0,12.7-9.5,12.7-20.4c0-18-3.9-23.6-21.8-37.7
		c-18-14.2-27.6-23.3-27.6-48.1c0-22.1,6.7-44.3,36.9-44.3c30.9,0,35.7,22.1,35.7,40.2v8.9h-25.6v-8.2c0-11.7-2-18.7-10.5-18.7
		c-8.4,0-10.6,7.3-10.6,18.4c0,11.8,2.2,17.6,17,28.4c25,18.5,32.7,29.3,32.7,57.3c0,23.7-8.3,46.2-39.5,46.2
		c-31,0-38.5-19.7-38.5-41.8v-9.9H1012.8z"/>
</g>
</svg>
